<?xml version="1.0" encoding="us-ascii" standalone="no"?><svg xmlns="http://www.w3.org/2000/svg" xmlns:xlink="http://www.w3.org/1999/xlink" contentStyleType="text/css" height="740.625px" preserveAspectRatio="none" style="width:1190px;height:740px;" version="1.1" viewBox="0 0 1190 740" width="1190.625px" zoomAndPan="magnify"><defs><linearGradient id="gfdzdcspv50nt0" x1="50%" x2="50%" y1="0%" y2="100%"><stop offset="0%" stop-color="#4DABF5"/><stop offset="100%" stop-color="#2196F3"/></linearGradient><filter height="300%" id="ffdzdcspv50nt" width="300%" x="-1" y="-1"><feGaussianBlur result="blurOut" stdDeviation="2.0833333333333335"/><feColorMatrix in="blurOut" result="blurOut2" type="matrix" values="0 0 0 0 0 0 0 0 0 0 0 0 0 0 0 0 0 0 .4 0"/><feOffset dx="4.166666666666667" dy="4.166666666666667" in="blurOut2" result="blurOut3"/><feBlend in="SourceGraphic" in2="blurOut3" mode="normal"/></filter></defs><g><line style="stroke:#CCCCCC;stroke-width:1.0416666666666667;stroke-dasharray:5.0,5.0;" x1="43.75" x2="43.75" y1="112.4674" y2="632.9753"/><line style="stroke:#CCCCCC;stroke-width:1.0416666666666667;stroke-dasharray:5.0,5.0;" x1="209.375" x2="209.375" y1="112.4674" y2="632.9753"/><line style="stroke:#CCCCCC;stroke-width:1.0416666666666667;stroke-dasharray:5.0,5.0;" x1="422.9167" x2="422.9167" y1="112.4674" y2="632.9753"/><line style="stroke:#CCCCCC;stroke-width:1.0416666666666667;stroke-dasharray:5.0,5.0;" x1="643.75" x2="643.75" y1="112.4674" y2="632.9753"/><line style="stroke:#CCCCCC;stroke-width:1.0416666666666667;stroke-dasharray:5.0,5.0;" x1="867.7083" x2="867.7083" y1="112.4674" y2="632.9753"/><line style="stroke:#CCCCCC;stroke-width:1.0416666666666667;stroke-dasharray:5.0,5.0;" x1="1101.0417" x2="1101.0417" y1="112.4674" y2="632.9753"/><text fill="#222222" font-family="Verdana" font-size="12.5" lengthAdjust="spacing" textLength="30.2083" x="26.0417" y="99.1028">User</text><ellipse cx="44.2708" cy="19.7917" fill="url(#gfdzdcspv50nt0)" filter="url(#ffdzdcspv50nt)" rx="8.3333" ry="8.3333" style="stroke:#2196F3;stroke-width:1.0416666666666667;"/><path d="M44.2708,28.125 L44.2708,56.25 M30.7292,36.4583 L57.8125,36.4583 M44.2708,56.25 L30.7292,71.875 M44.2708,56.25 L57.8125,71.875 " fill="none" filter="url(#ffdzdcspv50nt)" style="stroke:#2196F3;stroke-width:1.0416666666666667;"/><text fill="#222222" font-family="Verdana" font-size="12.5" lengthAdjust="spacing" textLength="30.2083" x="26.0417" y="653.953">User</text><ellipse cx="44.2708" cy="676.6927" fill="url(#gfdzdcspv50nt0)" filter="url(#ffdzdcspv50nt)" rx="8.3333" ry="8.3333" style="stroke:#2196F3;stroke-width:1.0416666666666667;"/><path d="M44.2708,685.026 L44.2708,713.151 M30.7292,693.3594 L57.8125,693.3594 M44.2708,713.151 L30.7292,728.776 M44.2708,713.151 L57.8125,728.776 " fill="none" filter="url(#ffdzdcspv50nt)" style="stroke:#2196F3;stroke-width:1.0416666666666667;"/><rect fill="url(#gfdzdcspv50nt0)" filter="url(#ffdzdcspv50nt)" height="49.9674" rx="4.1667" ry="4.1667" style="stroke:#2196F3;stroke-width:1.0416666666666667;" width="114.5833" x="151.0417" y="58.3333"/><text fill="#FFFFFF" font-family="Verdana" font-size="12.5" lengthAdjust="spacing" textLength="79.1667" x="168.75" y="87.6444">API Gateway</text><rect fill="url(#gfdzdcspv50nt0)" filter="url(#ffdzdcspv50nt)" height="49.9674" rx="4.1667" ry="4.1667" style="stroke:#2196F3;stroke-width:1.0416666666666667;" width="114.5833" x="151.0417" y="631.9336"/><text fill="#FFFFFF" font-family="Verdana" font-size="12.5" lengthAdjust="spacing" textLength="79.1667" x="168.75" y="661.2447">API Gateway</text><rect fill="url(#gfdzdcspv50nt0)" filter="url(#ffdzdcspv50nt)" height="49.9674" rx="4.1667" ry="4.1667" style="stroke:#2196F3;stroke-width:1.0416666666666667;" width="118.75" x="362.5" y="58.3333"/><text fill="#FFFFFF" font-family="Verdana" font-size="12.5" lengthAdjust="spacing" textLength="83.3333" x="380.2083" y="87.6444">AWS Lambda</text><rect fill="url(#gfdzdcspv50nt0)" filter="url(#ffdzdcspv50nt)" height="49.9674" rx="4.1667" ry="4.1667" style="stroke:#2196F3;stroke-width:1.0416666666666667;" width="118.75" x="362.5" y="631.9336"/><text fill="#FFFFFF" font-family="Verdana" font-size="12.5" lengthAdjust="spacing" textLength="83.3333" x="380.2083" y="661.2447">AWS Lambda</text><rect fill="url(#gfdzdcspv50nt0)" filter="url(#ffdzdcspv50nt)" height="49.9674" rx="4.1667" ry="4.1667" style="stroke:#2196F3;stroke-width:1.0416666666666667;" width="129.1667" x="578.125" y="58.3333"/><text fill="#FFFFFF" font-family="Verdana" font-size="12.5" lengthAdjust="spacing" textLength="93.75" x="595.8333" y="87.6444">DeviceHandler</text><rect fill="url(#gfdzdcspv50nt0)" filter="url(#ffdzdcspv50nt)" height="49.9674" rx="4.1667" ry="4.1667" style="stroke:#2196F3;stroke-width:1.0416666666666667;" width="129.1667" x="578.125" y="631.9336"/><text fill="#FFFFFF" font-family="Verdana" font-size="12.5" lengthAdjust="spacing" textLength="93.75" x="595.8333" y="661.2447">DeviceHandler</text><rect fill="url(#gfdzdcspv50nt0)" filter="url(#ffdzdcspv50nt)" height="49.9674" rx="4.1667" ry="4.1667" style="stroke:#2196F3;stroke-width:1.0416666666666667;" width="125" x="804.1667" y="58.3333"/><text fill="#FFFFFF" font-family="Verdana" font-size="12.5" lengthAdjust="spacing" textLength="89.5833" x="821.875" y="87.6444">DeviceService</text><rect fill="url(#gfdzdcspv50nt0)" filter="url(#ffdzdcspv50nt)" height="49.9674" rx="4.1667" ry="4.1667" style="stroke:#2196F3;stroke-width:1.0416666666666667;" width="125" x="804.1667" y="631.9336"/><text fill="#FFFFFF" font-family="Verdana" font-size="12.5" lengthAdjust="spacing" textLength="89.5833" x="821.875" y="661.2447">DeviceService</text><rect fill="url(#gfdzdcspv50nt0)" filter="url(#ffdzdcspv50nt)" height="49.9674" rx="4.1667" ry="4.1667" style="stroke:#2196F3;stroke-width:1.0416666666666667;" width="146.875" x="1026.0417" y="58.3333"/><text fill="#FFFFFF" font-family="Verdana" font-size="12.5" lengthAdjust="spacing" textLength="111.4583" x="1043.75" y="87.6444">DeviceRepository</text><rect fill="url(#gfdzdcspv50nt0)" filter="url(#ffdzdcspv50nt)" height="49.9674" rx="4.1667" ry="4.1667" style="stroke:#2196F3;stroke-width:1.0416666666666667;" width="146.875" x="1026.0417" y="631.9336"/><text fill="#FFFFFF" font-family="Verdana" font-size="12.5" lengthAdjust="spacing" textLength="111.4583" x="1043.75" y="661.2447">DeviceRepository</text><polygon fill="#2196F3" points="197.3958,160.3516,207.8125,164.5182,197.3958,168.6849,201.5625,164.5182" style="stroke:#2196F3;stroke-width:1.0416666666666667;"/><line style="stroke:#2196F3;stroke-width:3.125;" x1="44.2708" x2="203.6458" y1="164.5182" y2="164.5182"/><text fill="#222222" font-family="Verdana" font-size="12.5" lengthAdjust="spacing" textLength="119.7917" x="61.9792" y="149.0702">HTTP GET Request</text><polygon fill="#2196F3" points="410.9375,210.319,421.3542,214.4857,410.9375,218.6523,415.1042,214.4857" style="stroke:#2196F3;stroke-width:1.0416666666666667;"/><line style="stroke:#2196F3;stroke-width:3.125;" x1="209.8958" x2="417.1875" y1="214.4857" y2="214.4857"/><text fill="#222222" font-family="Verdana" font-size="12.5" lengthAdjust="spacing" textLength="107.2917" x="227.6042" y="199.0377">lambda.Start(...)</text><polygon fill="#2196F3" points="631.7708,260.2865,642.1875,264.4531,631.7708,268.6198,635.9375,264.4531" style="stroke:#2196F3;stroke-width:1.0416666666666667;"/><line style="stroke:#2196F3;stroke-width:3.125;" x1="423.4375" x2="638.0208" y1="264.4531" y2="264.4531"/><text fill="#222222" font-family="Verdana" font-size="12.5" lengthAdjust="spacing" textLength="88.5417" x="441.1458" y="249.0051">GetDevice(...)</text><polygon fill="#2196F3" points="855.7292,310.2539,866.1458,314.4206,855.7292,318.5872,859.8958,314.4206" style="stroke:#2196F3;stroke-width:1.0416666666666667;"/><line style="stroke:#2196F3;stroke-width:3.125;" x1="644.2708" x2="861.9792" y1="314.4206" y2="314.4206"/><text fill="#222222" font-family="Verdana" font-size="12.5" lengthAdjust="spacing" textLength="137.5" x="661.9792" y="298.9726">service.GetDevice(id)</text><polygon fill="#2196F3" points="1088.5417,360.2214,1098.9583,364.388,1088.5417,368.5547,1092.7083,364.388" style="stroke:#2196F3;stroke-width:1.0416666666666667;"/><line style="stroke:#2196F3;stroke-width:3.125;" x1="868.2292" x2="1094.7917" y1="364.388" y2="364.388"/><text fill="#222222" font-family="Verdana" font-size="12.5" lengthAdjust="spacing" textLength="87.5" x="885.9375" y="348.94">GetDevice(id)</text><polygon fill="#2196F3" points="879.6875,410.1888,869.2708,414.3555,879.6875,418.5221,875.5208,414.3555" style="stroke:#2196F3;stroke-width:1.0416666666666667;"/><line style="stroke:#2196F3;stroke-width:3.125;stroke-dasharray:2.0,2.0;" x1="873.4375" x2="1100" y1="414.3555" y2="414.3555"/><text fill="#222222" font-family="Verdana" font-size="12.5" lengthAdjust="spacing" textLength="42.7083" x="896.3542" y="398.9075">Device</text><polygon fill="#2196F3" points="655.7292,460.1563,645.3125,464.3229,655.7292,468.4896,651.5625,464.3229" style="stroke:#2196F3;stroke-width:1.0416666666666667;"/><line style="stroke:#2196F3;stroke-width:3.125;stroke-dasharray:2.0,2.0;" x1="649.4792" x2="867.1875" y1="464.3229" y2="464.3229"/><text fill="#222222" font-family="Verdana" font-size="12.5" lengthAdjust="spacing" textLength="105.2083" x="672.3958" y="448.8749">OperationResult</text><polygon fill="#2196F3" points="434.8958,510.1237,424.4792,514.2904,434.8958,518.457,430.7292,514.2904" style="stroke:#2196F3;stroke-width:1.0416666666666667;"/><line style="stroke:#2196F3;stroke-width:3.125;" x1="428.6458" x2="643.2292" y1="514.2904" y2="514.2904"/><text fill="#222222" font-family="Verdana" font-size="12.5" lengthAdjust="spacing" textLength="64.5833" x="451.5625" y="498.8424">Response</text><polygon fill="#2196F3" points="221.3542,560.0911,210.9375,564.2578,221.3542,568.4245,217.1875,564.2578" style="stroke:#2196F3;stroke-width:1.0416666666666667;"/><line style="stroke:#2196F3;stroke-width:3.125;" x1="215.1042" x2="422.3958" y1="564.2578" y2="564.2578"/><text fill="#222222" font-family="Verdana" font-size="12.5" lengthAdjust="spacing" textLength="64.5833" x="238.0208" y="548.8098">Response</text><polygon fill="#2196F3" points="55.7292,610.0586,45.3125,614.2253,55.7292,618.3919,51.5625,614.2253" style="stroke:#2196F3;stroke-width:1.0416666666666667;"/><line style="stroke:#2196F3;stroke-width:3.125;" x1="49.4792" x2="208.8542" y1="614.2253" y2="614.2253"/><text fill="#222222" font-family="Verdana" font-size="12.5" lengthAdjust="spacing" textLength="101.0417" x="72.3958" y="598.7773">HTTP Response</text><!--SRC=[RP3FRi8m3CRlUGgF4np80_I0XCHK9aq2qKwSlTRI8lLFI0o8jr_If2IREFbBlf_iptxZ7-e9UcGo2WKsF1huicI4HiEgKHe7XiNs-06bO-xuM03QMV-3pXLyOl_TuiG4-HVPqKqrjCUXxSXCLDIli8gCBnCMzIliH7gqokKEqT9J2By8h3Tpt0BsTNs4yhrsrELAbaLqF1Jo5j1DLLRiHYsbb2iH7C_4j0MKn65w8EA_HsBI0cmGCg6gNObeUp8bpVjvA3cmpbi69FN84nqq6MGr3YUoruxpIFDcpj7ZO2bRw7cPfvTTn9yltcosVm40]--></g></svg>